<svg xmlns="http://www.w3.org/2000/svg" xmlns:svg="http://www.w3.org/2000/svg" id="svg71" width="73.994" height="23.995" version="1.1" viewBox="0 0 19.578 6.349"><metadata id="metadata68"/><g id="layer1" transform="translate(-76.273366,-65.763465)"><g id="g123" transform="matrix(0.26458333,0,0,0.26458333,-25.196458,-19.11963)"><g id="g121"><path id="path109" d="m 406.487,330.292 c -2.059,-2.827 -2.059,-2.827 -2.059,-2.827 h 4.021 c 1.562,0 2.226,0.697 2.226,2.261 v 10.401 c 0,0.466 0.266,0.731 0.732,0.731 h 1.328 v 3.555 h -4.021 c -1.563,0 -2.228,-0.662 -2.228,-2.261 v -11.86 z" style="fill:#f9f9f9"/><polygon id="polygon111" points="410.343 320.818 410.343 324.708 406.687 320.818" style="fill:#f9f9f9"/><path id="path113" d="m 416.356,330.821 -2.192,-3.356 h 2.293 v -4.621 h 4.122 v 4.621 h 3.855 v 3.356 h -3.855 v 6.849 c 0,2.788 2.191,3.188 3.355,3.188 0.465,0 0.766,-0.065 0.766,-0.065 v 3.689 c 0,0 -0.531,0.101 -1.293,0.101 -2.366,0 -7.05,-0.701 -7.05,-6.386 v -7.376 z" style="fill:#f9f9f9"/><path id="path115" d="m 428.652,330.821 -2.193,-3.356 h 2.293 v -4.621 h 4.123 v 4.621 h 3.855 v 3.356 h -3.855 v 6.849 c 0,2.788 2.191,3.188 3.355,3.188 0.465,0 0.768,-0.065 0.768,-0.065 v 3.689 c 0,0 -0.533,0.101 -1.301,0.101 -2.359,0 -7.045,-0.701 -7.045,-6.386 z" style="fill:#f9f9f9"/><path id="path117" d="m 448.193,327.064 c 5.184,0 9.309,3.691 9.309,8.877 0,5.218 -4.125,8.872 -9.309,8.872 -5.15,0 -9.271,-3.654 -9.271,-8.872 0,-5.185 4.121,-8.877 9.271,-8.877 z m 0,14.161 c 2.762,0 5.053,-2.126 5.053,-5.283 0,-3.123 -2.291,-5.283 -5.053,-5.283 -2.727,0 -5.018,2.16 -5.018,5.283 10e-4,3.157 2.292,5.283 5.018,5.283 z" style="fill:#f9f9f9"/><path id="path119" d="m 391.213,327.082 c 3.686,0 4.879,2.06 4.879,2.06 h 0.069 c 0,0 -0.035,-0.433 -0.035,-0.997 v -4.595 l -2.06,-2.71 h 4.02 c 1.56,0 2.257,0.697 2.257,2.257 v 17.034 c 0,0.467 0.266,0.732 0.729,0.732 h 1.296 v 3.55 h -3.886 c -1.528,0 -2.091,-0.728 -2.091,-1.726 0,-0.365 0,-0.631 0,-0.631 h -0.065 c 0,0 -1.397,2.757 -5.28,2.757 -4.585,0 -7.538,-3.619 -7.538,-8.863 0,-5.382 3.219,-8.868 7.705,-8.868 z m 5.012,8.833 c 0,-2.622 -1.361,-5.214 -4.184,-5.214 -2.324,0 -4.251,1.891 -4.251,5.249 0,3.219 1.694,5.309 4.186,5.309 2.191,0 4.249,-1.594 4.249,-5.344 z" style="fill:#f9f9f9"/></g></g></g></svg>